<?xml version="1.0" encoding="UTF-8"?><svg xmlns="http://www.w3.org/2000/svg" viewBox="0 0 451.31 451.31"><defs><style>.d{fill:#fff;}.e{fill:none;stroke:#fff;stroke-miterlimit:10;stroke-width:17px;}</style></defs><g id="a"/><g id="b"><g id="c"><g><path class="d" d="M181.59,231.73h20.43v84.11c0,1.66,1.35,3.01,3.01,3.01h34.64c1.66,0,3.01-1.35,3.01-3.01v-83.72h23.49c1.53,0,2.81-1.15,2.99-2.66l3.57-30.97c.1-.85-.17-1.71-.74-2.34-.57-.64-1.39-1.01-2.24-1.01h-27.05v-19.41c0-5.85,3.15-8.82,9.37-8.82h17.69c1.66,0,3.01-1.35,3.01-3.01v-28.42c0-1.66-1.35-3.01-3.01-3.01h-24.38c-.17,0-.55-.02-1.12-.02-4.23,0-18.93,.83-30.55,11.51-12.87,11.84-11.08,26.02-10.65,28.47v22.7h-21.45c-1.66,0-3.01,1.35-3.01,3.01v30.57c0,1.66,1.35,3.01,3.01,3.01Z"/><rect class="e" x="74.59" y="74.59" width="302.13" height="302.13" transform="translate(225.66 -93.47) rotate(45)"/></g></g></g></svg>