<?xml version="1.0" encoding="UTF-8"?><svg xmlns="http://www.w3.org/2000/svg" viewBox="0 0 451.31 451.31"><defs><style>.d{fill:#fff;}.e{fill:none;stroke:#fff;stroke-miterlimit:10;stroke-width:17px;}</style></defs><g id="a"/><g id="b"><g id="c"><g><rect class="e" x="74.59" y="74.59" width="302.13" height="302.13" transform="translate(225.66 -93.47) rotate(45)"/><path class="d" d="M193.34,263.05c-15.24-1.34-25.39-8.93-31.07-22.92,.86,0,1.5,.01,2.13,0,3.44-.07,6.87-.12,10.31-.25,.33-.01,.64-.51,.97-.78-.32-.2-.61-.49-.95-.6-10.48-3.26-17.93-9.9-21.87-20.15-1.18-3.07-1.51-6.46-2.17-9.72-.13-.62,.04-1.3,.07-2.08,2.48,.92,4.72,1.92,7.05,2.56,2.26,.62,4.57,1.34,7.21,.91-14.47-12.23-17.86-26.73-10.24-43.65l.95-.6c.26,.51,.44,1.09,.8,1.51,10.42,12.19,23.11,21.24,38.03,27.09,9,3.53,18.4,5.48,28.05,6.22,1.28,.1,1.63-.35,1.38-1.49-.9-4.1-.82-8.18-.04-12.3,.87-4.59,2.63-8.77,5.24-12.61,4.04-5.93,9.45-10.17,16.19-12.56,6.73-2.39,13.61-2.61,20.51-.62,5.43,1.56,10.12,4.36,14.19,8.29,.47,.45,1.43,.77,2.05,.64,5.27-1.14,10.35-2.88,15.21-5.21,1.42-.68,2.8-1.47,4.19-2.21l.49,.4c-1.31,2.44-2.5,4.95-3.95,7.3-2.08,3.38-4.94,6.08-8.05,8.51-.39,.31-.68,.74-.9,1.3,5.76-.39,11.11-2.17,16.41-4.15l.23,.37c-.87,1.22-1.66,2.49-2.62,3.63-3.47,4.14-7.17,8.05-11.58,11.22-1.24,.89-1.68,1.88-1.64,3.42,.2,7.45-.54,14.81-2.15,22.11-4.58,20.69-14.61,38.2-30.4,52.32-8.05,7.2-17.22,12.6-27.34,16.48-14,5.37-28.47,7.03-43.3,5.87-7.99-.62-15.78-2.39-23.35-5.12-6.01-2.17-11.74-4.87-17.21-8.14-.21-.13-.42-.26-.63-.65,8.46,.18,16.81-.28,24.97-2.68,8.18-2.41,15.65-6.15,22.82-11.66Z"/></g></g></g></svg>